<svg style="position: absolute; width: 0; height: 0; overflow: hidden;" version="1.1" xmlns="http://www.w3.org/2000/svg" xmlns:xlink="http://www.w3.org/1999/xlink">
<defs>


<symbol id="logo-svg">
<svg xmlns="http://www.w3.org/2000/svg" viewBox="0 0 164 35" class="Svg-sc-jx1qpn kPUbuI"><g fill-rule="evenodd" clip-rule="evenodd"><path fill="#00ff99" d="M0 3h4v29H0z"></path><path fill="#9933ff" d="M24 11h4v21h-4z"></path><path fill="#00ccff" d="M0 31h28v4H0z"></path><path fill="#fff35c" d="M0 0h16v4H0z"></path><path fill="#ff6666" d="M24 8V4h-4V0h-4v12h12V8"></path><path fill="#121212" opacity="0.4" d="M24 16v-4h4M16 0v4h-4"></path></g><g fill="#ffffff"><path d="M59.1 12c-2-1.9-4.4-2.4-6.2-2.4-4.4 0-7.3 2.6-7.3 8 0 3.5 1.8 7.8 7.3 7.8 1.4 0 3.7-.3 5.2-1.4v-3.5h-6.9v-6h13.3v12.1c-1.7 3.5-6.4 5.3-11.7 5.3-10.7 0-14.8-7.2-14.8-14.3 0-7.1 4.7-14.4 14.9-14.4 3.8 0 7.1.8 10.7 4.4L59.1 12zM68.2 31.2V4h7.6v27.2h-7.6zM88.3 23.8v7.3h-7.7V4h13.2c7.3 0 10.9 4.6 10.9 9.9 0 5.6-3.6 9.9-10.9 9.9h-5.5zm0-6.5h5.5c2.1 0 3.2-1.6 3.2-3.3 0-1.8-1.1-3.4-3.2-3.4h-5.5v6.7zM125 31.2V20.9h-9.8v10.3h-7.7V4h7.7v10.3h9.8V4h7.6v27.2H125zM149.2 13.3l5.9-9.3h8.7v.3l-10.8 16v10.8h-7.7V20.3L135 4.3V4h8.7l5.5 9.3z"></path></g></svg>
     
</symbol><symbol version="1.1" xmlns="http://www.w3.org/2000/svg" viewBox="0 0 20 20" id="magnifying-glass">
    <title>magnifying-glass</title>
    <path d="M17.545 15.467l-3.779-3.779c0.57-0.935 0.898-2.035 0.898-3.21 0-3.417-2.961-6.377-6.378-6.377s-6.186 2.769-6.186 6.186c0 3.416 2.961 6.377 6.377 6.377 1.137 0 2.2-0.309 3.115-0.844l3.799 3.801c0.372 0.371 0.975 0.371 1.346 0l0.943-0.943c0.371-0.371 0.236-0.84-0.135-1.211zM4.004 8.287c0-2.366 1.917-4.283 4.282-4.283s4.474 2.107 4.474 4.474c0 2.365-1.918 4.283-4.283 4.283s-4.473-2.109-4.473-4.474z"></path>
  </symbol>
    <symbol xmlns="http://www.w3.org/2000/svg" viewBox="0 0 21 21" id="reset-alt">
    <g fill="none" fill-rule="evenodd" stroke="#000000" stroke-linecap="round" stroke-linejoin="round" transform="translate(2 2)">
      <path d="m12.5 1.5c2.4138473 1.37729434 4 4.02194088 4 7 0 4.418278-3.581722 8-8 8s-8-3.581722-8-8 3.581722-8 8-8"></path>
      <path d="m12.5 5.5v-4h4"></path>
    </g>
  </symbol>
</defs>
</svg>
